<svg width="36" height="29" viewBox="0 0 36 29" fill="none" xmlns="http://www.w3.org/2000/svg">
<path d="M35.6732 3.43993C34.3613 4.02123 32.952 4.41401 31.4705 4.59154C32.9992 3.67684 34.1428 2.23721 34.6881 0.541269C33.2519 1.39435 31.68 1.99483 30.0408 2.3166C28.9385 1.13964 27.4785 0.359535 25.8874 0.0973956C24.2963 -0.164744 22.6631 0.10575 21.2415 0.866882C19.8199 1.62801 18.6893 2.8372 18.0254 4.30671C17.3614 5.77621 17.2011 7.42382 17.5695 8.99373C14.6593 8.84761 11.8124 8.09122 9.21354 6.77363C6.61463 5.45605 4.32182 3.60672 2.48389 1.34567C1.85546 2.42972 1.49411 3.68659 1.49411 5.02516C1.49341 6.23018 1.79015 7.41674 2.35801 8.47956C2.92588 9.54239 3.7473 10.4486 4.7494 11.1178C3.58723 11.0809 2.4507 10.7668 1.4344 10.2019V10.2962C1.43429 11.9862 2.0189 13.6243 3.08905 14.9324C4.1592 16.2406 5.64896 17.1382 7.30557 17.4729C6.22746 17.7647 5.09715 17.8077 3.99999 17.5986C4.46739 19.0528 5.37783 20.3245 6.60387 21.2355C7.8299 22.1466 9.31015 22.6515 10.8374 22.6795C8.24482 24.7147 5.04302 25.8187 1.74705 25.8138C1.1632 25.814 0.579852 25.7799 0 25.7117C3.3456 27.8628 7.24012 29.0044 11.2176 29C24.6818 29 32.0424 17.8484 32.0424 8.17676C32.0424 7.86255 32.0345 7.54519 32.0204 7.23097C33.4521 6.19558 34.6879 4.91345 35.67 3.44464L35.6732 3.43993Z" fill="white"/>
</svg>
