<svg width="44" height="29" viewBox="0 0 44 29" fill="none" xmlns="http://www.w3.org/2000/svg">
<path d="M42.5685 4.5501C42.3223 3.672 41.8428 2.87702 41.1809 2.24965C40.5004 1.603 39.6663 1.14043 38.7573 0.905613C35.3556 0.00898221 21.7268 0.00898241 21.7268 0.00898241C16.0451 -0.0556608 10.3648 0.228656 4.71794 0.860329C3.80897 1.1125 2.97642 1.5854 2.29432 2.23697C1.62411 2.88182 1.13866 3.67702 0.885069 4.54829C0.275891 7.83004 -0.0200896 11.1622 0.00111795 14.5C-0.0206186 17.8347 0.274636 21.1659 0.885069 24.4517C1.13323 25.3193 1.61687 26.1109 2.28889 26.7503C2.96091 27.3897 3.79776 27.8516 4.71794 28.0962C8.16499 28.991 21.7268 28.991 21.7268 28.991C27.4157 29.0557 33.1032 28.7714 38.7573 28.1397C39.6663 27.9048 40.5004 27.4423 41.1809 26.7956C41.8511 26.1562 42.3275 25.361 42.5666 24.4952C43.1917 21.2147 43.4957 17.8811 43.4741 14.5417C43.5212 11.1881 43.2176 7.83877 42.5685 4.54829V4.5501ZM17.3939 20.7021V8.29965L28.7332 14.5018L17.3939 20.7021Z" fill="white"/>
</svg>
